<?xml version="1.0" standalone="no"?>
<!DOCTYPE svg PUBLIC "-//W3C//DTD SVG 20010904//EN"
 "http://www.w3.org/TR/2001/REC-SVG-20010904/DTD/svg10.dtd">
<svg version="1.0" xmlns="http://www.w3.org/2000/svg"
 width="1052.000000pt" height="1052.000000pt" viewBox="0 0 1052.000000 1052.000000"
 preserveAspectRatio="xMidYMid meet">
<metadata>
Created by potrace 1.14, written by Peter Selinger 2001-2017
</metadata>
<g transform="translate(0.000000,1052.000000) scale(0.100000,-0.100000)"
fill="#000000" stroke="none">
<path d="M4960 8849 c-81 -7 -203 -23 -340 -45 -19 -3 -75 -14 -125 -25 -987
-217 -1835 -835 -2349 -1712 -64 -108 -188 -363 -231 -472 -110 -279 -200
-631 -230 -905 -4 -30 -8 -68 -11 -85 -13 -84 -12 -549 1 -680 104 -1036 612
-1937 1440 -2555 534 -398 1130 -626 1820 -696 123 -12 594 -13 655 -1 14 3
54 8 90 12 104 10 295 44 425 75 1393 334 2466 1484 2704 2897 37 218 46 334
46 608 0 282 -8 376 -51 625 -119 694 -466 1371 -966 1881 -601 614 -1351 976
-2223 1074 -90 10 -558 13 -655 4z m20 -210 c-198 -41 -331 -85 -480 -159
-501 -250 -843 -727 -925 -1288 -14 -97 -14 -390 0 -477 53 -323 178 -602 381
-845 319 -385 782 -603 1294 -611 472 -8 866 -168 1201 -490 206 -197 382
-503 453 -784 56 -224 67 -504 27 -720 -114 -620 -548 -1121 -1142 -1316 -129
-42 -130 -42 -274 -65 -108 -18 -339 -23 -500 -11 -441 31 -857 144 -1260 342
-333 164 -625 374 -900 650 -351 351 -605 747 -780 1215 -277 739 -281 1588
-11 2333 265 733 778 1355 1448 1759 385 232 808 382 1253 447 201 29 310 39
215 20z m416 -1254 c64 -19 164 -84 204 -133 17 -20 44 -63 59 -94 135 -269
-32 -590 -333 -640 -236 -39 -468 132 -508 375 -28 171 58 357 208 447 109 65
248 83 370 45z"/>
<path d="M5128 3991 c-81 -26 -135 -61 -195 -123 -82 -88 -123 -189 -123 -309
0 -292 280 -507 565 -434 276 72 415 390 284 647 -28 54 -113 143 -167 175
-106 62 -252 80 -364 44z"/>
</g>
</svg>
